<svg id="Layer_1" data-name="Layer 1" xmlns="http://www.w3.org/2000/svg" viewBox="0 0 2064.88 418.02"><defs><style>.cls-1{fill:#010101;}</style></defs><path class="cls-1" d="M823.14,1449.54H810l-130.3-313.66L671,1114.6q-9-21.57-15.15-31.19a50.28,50.28,0,0,0-30-21.87,148.73,148.73,0,0,0-23-3.2v-6.71H786.12v6.71q-25.65,0-35,3.79a28.89,28.89,0,0,0-12.83,11.36,32.73,32.73,0,0,0-4.95,17.79q0,12.24,9.32,33.81l7.58,18.07,90.66,221.55m-18.86-271.83q-4.8-12.68-12.68-20.55A43.49,43.49,0,0,0,792,1061.54q-9.78-3.19-24.93-3.2v-6.71H954.55v6.71q-17.2,0-24.92,1.16a41.72,41.72,0,0,0-14.43,5,39,39,0,0,0-14.14,15,43,43,0,0,0-5.39,21.13q0,10.5,8.16,36.44l71.71,231.17,80.16-196.77q18.66-45.18,18.66-70,0-25.95-17.2-36.73-10.48-6.4-31.77-6.41v-6.71h135v6.71q-19.53,2-29.58,7.43t-20,19.68q-14.58,20.4-36.44,73.75L954.55,1449.54H942.6L838.82,1139.08" transform="translate(-171.82 -1041.57)"/><path class="cls-1" d="M316.17,1278.26H282.08l-18.74,48.26q-14.55,37.62-23.46,56.42t-18.21,30.74c-7.4,9.91-14.95,17.11-22.74,21.59a58.77,58.77,0,0,1-23.88,7.31,3.54,3.54,0,0,0-3.23,3.49,3.48,3.48,0,0,0,3.5,3.46H298.93a3.47,3.47,0,0,0,3.49-3.46V1446a3.51,3.51,0,0,0-3.14-3.46q-15.66-1.83-26-9a41.7,41.7,0,0,1-12.95-15.13,43.15,43.15,0,0,1-4.81-20.12q0-18.36,13.11-50.44l7.28-18.06,15.17-40.24H419.31l28,68.8,5,12.24q8.14,20.1,8.15,32.06,0,20.1-18.06,31.49c-6.39,4-17.41,6.81-33,8.45a3.49,3.49,0,0,0-3.16,3.46v.06a3.46,3.46,0,0,0,3.46,3.46H594.23a3.5,3.5,0,0,0,3.5-3.46V1446a3.49,3.49,0,0,0-3.11-3.46c-10.51-1.28-18.54-2.78-24-4.45a52.56,52.56,0,0,1-16-8q-9.88-7.56-18.36-22.44T513.46,1358l-125.91-304.2a3.51,3.51,0,0,0-3.22-2.18H372.45a3.47,3.47,0,0,0-3.26,2.24L348,1108.51l31.1,80.19-.4.15,34,83.91a3.5,3.5,0,0,1-3.25,4.81" transform="translate(-171.82 -1041.57)"/><path class="cls-1" d="M749.47,1442.49c-10.51-1.28-18.54-2.78-24-4.45a52.56,52.56,0,0,1-16-8q-9.9-7.56-18.36-22.44T668.31,1358L542.4,1053.81a3.51,3.51,0,0,0-3.23-2.18H527.29a3.47,3.47,0,0,0-3.25,2.24l-21.21,54.64,31.09,80.19-.39.15,16,39.44,0,0,3.69,9.21,14.31,35.28a3.49,3.49,0,0,1,.23,1l6.32,15.77h0l28,68.8,5,12.24q8.16,20.1,8.15,32.06,0,20.1-18.06,31.49c-6.38,4-17.4,6.81-33,8.45a3.49,3.49,0,0,0-3.16,3.46v.06a3.46,3.46,0,0,0,3.46,3.46H749.08a3.49,3.49,0,0,0,3.49-3.46V1446A3.49,3.49,0,0,0,749.47,1442.49Z" transform="translate(-171.82 -1041.57)"/><path class="cls-1" d="M2016.33,1051.63h13.12l130.3,313.66,8.74,21.28q9,21.57,15.16,31.19a50.21,50.21,0,0,0,30,21.86q8.16,2,23,3.21v6.71H2053.35v-6.71q25.65,0,35-3.79a28.85,28.85,0,0,0,12.83-11.37,32.69,32.69,0,0,0,5-17.78q0-12.24-9.33-33.81L2089.2,1358l-90.65-221.54m18.86,271.83q4.8,12.68,12.68,20.55a43.46,43.46,0,0,0,17.34,10.78q9.77,3.21,24.92,3.21v6.71H1884.92v-6.71q17.19,0,24.92-1.17a41.7,41.7,0,0,0,14.43-5,39.11,39.11,0,0,0,14.14-15,43,43,0,0,0,5.39-21.14q0-10.49-8.16-36.44L1863.93,1133l-80.17,196.77q-18.65,45.18-18.65,70,0,25.93,17.2,36.73,10.49,6.4,31.77,6.41v6.71h-135v-6.71q19.55-2,29.59-7.43t20-19.68q14.58-20.4,36.44-73.75l119.81-290.34h11.95l103.77,310.45" transform="translate(-171.82 -1041.57)"/><path class="cls-1" d="M1500.24,1106.59c-10.41,14.57-18.94,31.88-25.46,51.62q1.62,4.68,3.09,9.53,12.69,41.85,12.68,88.82,0,85.49-46,143.82-21,26.25-44.17,37.92T1346.55,1450q-30.32,0-53.49-11.81t-43.87-37.78q-46.07-58.05-46.06-142.65,0-48.13,12.53-90.14t35.57-70.89q19.23-24.21,41.83-35t53.49-10.8q31.18,0,54.07,10.94a106,106,0,0,1,27,18.75q7.5-6.81,15.7-13.19c.71-.55,1.44-1.05,2.16-1.59q-4.5-2.37-9.11-4.55a202.41,202.41,0,0,0-86.86-19.69,206.75,206.75,0,0,0-70,12.4,236.7,236.7,0,0,0-64.71,35.44q-40.23,31.21-61.22,73.08t-21,90.86a202.92,202.92,0,0,0,13,71.91,194.24,194.24,0,0,0,37.16,61.7,211.5,211.5,0,0,0,72.88,53.67,216.65,216.65,0,0,0,178.55-.58,220,220,0,0,0,74.48-55.13,204.57,204.57,0,0,0,39.06-63.31,198.17,198.17,0,0,0,13.41-72q0-74.38-51.31-132.72Q1505.14,1111.53,1500.24,1106.59Z" transform="translate(-171.82 -1041.57)"/><path class="cls-1" d="M1670.2,1116.84a222.88,222.88,0,0,0-73.46-55.58,202.42,202.42,0,0,0-86.87-19.69,206.73,206.73,0,0,0-70,12.4,236.56,236.56,0,0,0-64.71,35.44q-40.23,31.21-61.22,73.08t-21,90.86a203.14,203.14,0,0,0,13,71.91,194.45,194.45,0,0,0,37.17,61.7q4.24,4.8,8.71,9.3a187,187,0,0,0,26.8-47.65l.54-1.41q-15.6-40.25-15.64-89.47,0-48.13,12.53-90.14t35.57-70.89q19.23-24.21,41.83-35t53.49-10.8q31.18,0,54.07,10.94t41.54,34.86q23,29.17,35.71,71t12.68,88.82q0,85.49-46.06,143.82-21,26.25-44.16,37.92T1507,1450q-30.32,0-53.49-11.81a116.28,116.28,0,0,1-25.27-17.75,238.57,238.57,0,0,1-19.57,16.72c2.43,1.21,4.88,2.38,7.38,3.5a216.65,216.65,0,0,0,178.55-.58,220,220,0,0,0,74.48-55.13,204.76,204.76,0,0,0,39.06-63.31,198.38,198.38,0,0,0,13.41-72Q1721.51,1175.18,1670.2,1116.84Z" transform="translate(-171.82 -1041.57)"/></svg>